<svg xmlns="http://www.w3.org/2000/svg" aria-label="CodexSess favicon" viewBox="0 0 64 64"><defs><linearGradient id="bg" x1="0" x2="1" y1="0" y2="1"><stop offset="0%" stop-color="#0b0f14"/><stop offset="100%" stop-color="#111821"/></linearGradient><linearGradient id="ring" x1="0" x2="1" y1="0" y2="1"><stop offset="0%" stop-color="#00d4aa"/><stop offset="100%" stop-color="#00b894"/></linearGradient></defs><rect width="64" height="64" fill="url(#bg)" rx="14"/><rect width="52" height="52" x="6" y="6" fill="url(#ring)" rx="12"/><rect width="44" height="44" x="10" y="10" fill="#111821" rx="10"/><path fill="#e9fffa" d="M28.8 22h9.9v3.8h-8c-2.2 0-3.4 1.4-3.4 3.1v6.3c0 1.7 1.2 3.1 3.4 3.1h8v3.8h-9.9c-3.3 0-5.3-2.2-5.3-5.3v-9.5c0-3.1 2-5.3 5.3-5.3z"/><path fill="#00d4aa" d="M42.2 22h-9.8v3.8h8.1c1.2 0 2 .7 2 1.8 0 1-.8 1.7-2 1.7h-2.7c-3.4 0-5.5 2.3-5.5 5.2 0 3 2.1 5.3 5.5 5.3h9.8V36h-8.1c-1.2 0-2-.8-2-1.8s.8-1.7 2-1.7h2.7c3.4 0 5.5-2.3 5.5-5.2 0-3.1-2.1-5.3-5.5-5.3z"/></svg>